HIERARCHY
ROOT Hips
{
	OFFSET -3.958830 18.904000 13.208200
	CHANNELS 6 Xposition Yposition Zposition Zrotation Yrotation Xrotation 
	JOINT LHipJoint
	{
		OFFSET 0.000000 0.000000 0.000000
		CHANNELS 3 Zrotation Yrotation Xrotation
		JOINT LeftUpLeg
		{
			OFFSET 1.800000 -1.400000 0.085000
			CHANNELS 3 Zrotation Yrotation Xrotation
			JOINT LeftLeg
			{
				OFFSET 2.215000 -6.000000 0.000000
				CHANNELS 3 Zrotation Yrotation Xrotation
				JOINT LeftFoot
				{
					OFFSET 2.500000 -6.900000 0.000000
					CHANNELS 3 Zrotation Yrotation Xrotation
					JOINT LeftToeBase
					{
						OFFSET 0.200000 -0.500000 1.950000
						CHANNELS 3 Zrotation Yrotation Xrotation
						End Site
						{
							OFFSET 0.000000 0.000000 0.000000
						}
					}
				}
			}
		}
	}
	JOINT RHipJoint
	{
		OFFSET 0.000000 0.000000 0.000000
		CHANNELS 3 Zrotation Yrotation Xrotation
		JOINT RightUpLeg
		{
			OFFSET -1.800000 -1.400000 0.085000
			CHANNELS 3 Zrotation Yrotation Xrotation
			JOINT RightLeg
			{
				OFFSET -2.215000 -6.000000 0.000000
				CHANNELS 3 Zrotation Yrotation Xrotation
				JOINT RightFoot
				{
					OFFSET -2.500000 -6.900000 0.000000
					CHANNELS 3 Zrotation Yrotation Xrotation
					JOINT RightToeBase
					{
						OFFSET -0.200000 -0.500000 1.950000
						CHANNELS 3 Zrotation Yrotation Xrotation
						End Site
						{
							OFFSET 0.000000 0.000000 0.000000
						}
					}
				}
			}
		}
	}
	JOINT LowerBack
	{
		OFFSET 0.000000 0.000000 0.000000
		CHANNELS 3 Zrotation Yrotation Xrotation
		JOINT Spine
		{
			OFFSET -0.087000 1.940000 -0.288900
			CHANNELS 3 Zrotation Yrotation Xrotation
			JOINT Spine1
			{
				OFFSET 0.000000 1.950000 0.060000
				CHANNELS 3 Zrotation Yrotation Xrotation
				JOINT Neck
				{
					OFFSET 0.000000 0.000000 0.000000
					CHANNELS 3 Zrotation Yrotation Xrotation
					JOINT Neck1
					{
						OFFSET 0.000000 1.600000 0.340000
						CHANNELS 3 Zrotation Yrotation Xrotation
						JOINT Head
						{
							OFFSET 0.000000 1.667000 -0.240000
							CHANNELS 3 Zrotation Yrotation Xrotation
							End Site
							{
								OFFSET 0.000000 0.000000 0.000000
							}
						}
					}
				}
				JOINT LeftShoulder
				{
					OFFSET 0.000000 0.000000 0.000000
					CHANNELS 3 Zrotation Yrotation Xrotation
					JOINT LeftArm
					{
						OFFSET 2.700000 1.550000 -0.730000
						CHANNELS 3 Zrotation Yrotation Xrotation
						JOINT LeftForeArm
						{
							OFFSET 5.450000 0.000000 0.000000
							CHANNELS 3 Zrotation Yrotation Xrotation
							JOINT LeftHand
							{
								OFFSET 3.450000 0.000000 0.000000
								CHANNELS 3 Zrotation Yrotation Xrotation
								JOINT LeftHandIndex1
								{
									OFFSET 0.750000 0.000000 0.000000
									CHANNELS 3 Zrotation Yrotation Xrotation
									End Site
									{
										OFFSET 0.000000 0.000000 0.000000
									}
								}
							}
						}
					}
				}
				JOINT RightShoulder
				{
					OFFSET 0.000000 0.000000 0.000000
					CHANNELS 3 Zrotation Yrotation Xrotation
					JOINT RightArm
					{
						OFFSET -2.700000 1.550000 -0.730000
						CHANNELS 3 Zrotation Yrotation Xrotation
						JOINT RightForeArm
						{
							OFFSET -5.450000 0.000000 0.000000
							CHANNELS 3 Zrotation Yrotation Xrotation
							JOINT RightHand
							{
								OFFSET -3.450000 0.000000 0.000000
								CHANNELS 3 Zrotation Yrotation Xrotation
								JOINT RightHandIndex1
								{
									OFFSET -0.750000 0.000000 0.000000
									CHANNELS 3 Zrotation Yrotation Xrotation
									End Site
									{
										OFFSET 0.000000 0.000000 0.000000
									}
								}
							}
						}
					}
				}
			}
		}
	}
}
MOTION
Frames: 8
Frame Time: 0.016667
-1.229280 17.092010 -2.207300 -2.214723 15.024865 -6.611404 -14.573135 11.479012 3.368846 5.138655 -3.333491 -35.915512 0.005322 4.290149 23.174222 -1.073582 3.800667 3.319920 0.697020 0.250710 0.366970 18.986710 -11.897027 3.166119 6.631302 -2.312968 3.425730 0.787409 -5.898818 21.955615 -0.853946 -5.240776 2.812372 0.309820 0.421010 0.131370 -5.713969 2.434404 -8.181538 19.916241 -2.277242 30.098132 -19.849069 8.363075 13.947324 2.645982 -4.274445 -11.369242 -10.664194 -5.068662 37.994034 11.291400 -12.071800 -19.513900 -1.425193 -29.810602 -2.496078 23.255224 -36.125727 -10.958479 23.930969 -22.395517 -5.083781 -3.708083 2.577071 0.796990 0.011310 -0.074060 0.390120 -4.750776 33.819081 8.731855 -18.730457 13.344775 -9.876913 -21.462911 24.329619 -3.542599 2.026520 -1.658797 -0.385810 0.567350 -0.055980 -0.181150 
-1.239320 17.099400 -2.196640 -1.670778 15.969554 -6.340344 -14.596651 11.371132 3.462515 4.330604 -4.136397 -36.346247 0.589139 4.375877 26.243374 -1.122718 4.231138 3.153654 0.747900 0.308940 0.358950 18.998630 -11.866688 3.047725 6.332431 -1.671731 2.021501 1.263150 -6.131821 24.495162 -0.836572 -5.396832 2.730361 0.402070 0.473100 0.127470 -5.737382 2.456677 -8.099404 19.599889 -2.053837 29.247495 -19.682133 8.395705 15.483698 2.351754 -4.554254 -10.034423 -10.765508 -5.723717 35.837071 11.688380 -12.854540 -20.355380 -0.458911 -28.481253 -3.632108 19.300430 -39.579970 -10.556941 28.685955 -23.674197 -7.146651 -3.724334 2.617101 0.778580 0.038630 -0.122070 0.405090 -5.351909 31.985163 8.681627 -16.623800 13.296688 -10.202846 -25.547538 27.079301 -5.173355 1.929655 -1.726592 -0.418510 0.622290 -0.031550 -0.176530 
-1.257760 17.136570 -2.176340 -1.562180 17.673241 -6.569651 -14.663631 11.333638 3.598702 3.766034 -5.178547 -36.551278 1.947584 4.503166 31.879822 -1.075916 5.085053 2.825823 0.785770 0.389260 0.314180 18.961992 -11.738905 2.918453 6.008133 -0.081496 -0.995746 3.104329 -7.278149 30.854725 -0.901058 -5.917840 2.542570 0.484860 0.543080 0.132740 -5.660712 2.251270 -8.045321 19.106377 -2.254835 29.350642 -19.205580 7.851267 16.232676 2.099324 -4.895944 -8.320357 -11.135353 -6.081862 34.120666 12.550840 -13.451670 -22.262350 -1.472398 -27.238792 -4.343989 11.026464 -43.418794 -8.939634 36.601384 -28.966588 -11.413883 -3.711546 2.570746 0.761960 0.071880 -0.143550 0.434260 -4.146945 29.907750 8.221952 -12.702153 13.745969 -11.394362 -32.741023 36.863254 -9.396735 1.685413 -1.673906 -0.433280 0.703970 0.000100 -0.145060 
-1.267470 17.167260 -2.121790 -1.268536 19.248093 -6.971351 -14.795535 11.490522 3.673620 3.537235 -5.974572 -35.721175 3.354130 4.884701 38.392304 -0.909082 6.214011 2.385228 0.830580 0.417460 0.355190 18.834688 -11.444356 2.876266 4.585228 2.153166 -4.630865 6.861929 -9.876640 38.440137 -1.089230 -6.929197 2.166663 0.510600 0.516270 0.161730 -5.340379 1.577037 -8.072537 16.748987 -1.898157 29.702945 -17.440218 7.280991 17.113874 2.041182 -4.729478 -7.841512 -10.795424 -5.796996 33.510697 12.316910 -13.039420 -22.442580 -2.009125 -26.228012 -3.588206 1.031788 -43.515786 -6.432452 47.668778 -38.849677 -19.328443 -3.620068 2.490181 0.759530 0.072760 -0.142780 0.426820 -3.486173 28.679519 7.886234 -5.255205 14.096004 -13.240977 -43.136052 49.478516 -17.949515 1.393655 -1.493593 -0.415490 0.665650 -0.008640 -0.165510 
-1.311840 17.190330 -2.080170 -0.549724 19.478219 -6.580477 -14.911672 11.527575 3.796443 3.626992 -6.390454 -36.019410 3.077990 5.985332 42.910039 -0.645291 7.066037 2.066706 0.830280 0.473990 0.338860 18.729840 -11.072805 2.951498 2.823386 4.586398 -9.146141 10.022724 -12.772528 45.556739 -1.356568 -8.082674 1.804620 0.491540 0.480710 0.163900 -5.000239 1.004520 -8.231331 13.397702 -0.804209 30.395944 -15.872908 7.269910 17.104173 1.751601 -4.178591 -8.183122 -10.104709 -4.608836 34.493094 12.797750 -11.577610 -22.641460 -1.442409 -25.038177 -2.095933 -7.454348 -41.620630 -4.765401 58.731460 -49.082677 -29.857769 -3.463288 2.249257 0.729970 0.065560 -0.100890 0.438050 -3.369238 27.734524 7.670868 4.809769 15.834859 -15.000705 -60.384540 62.181004 -34.680138 1.032750 -0.771968 -0.357150 0.624230 -0.049370 -0.139060 
-1.344170 17.190840 -2.026690 -1.011924 20.268250 -6.337520 -14.991917 11.585775 3.685102 4.419582 -6.093023 -35.602143 3.888914 6.527363 45.884651 -0.514485 7.682057 1.869638 0.775920 0.374340 0.397490 18.668602 -10.643336 3.265563 1.799637 7.071233 -13.730856 13.868065 -16.504399 51.697685 -1.703540 -9.371056 1.417522 0.411970 0.443440 0.143730 -4.783921 0.511962 -8.434467 11.533895 -0.584371 30.922794 -14.893756 6.652466 16.421739 1.958409 -3.866344 -8.801967 -9.934361 -3.566526 36.249862 12.626150 -10.009470 -23.775930 -2.169312 -23.558211 -0.150797 -15.220433 -38.898061 -3.174155 74.809568 -59.698882 -47.559346 -3.285725 1.540746 0.812420 0.031910 -0.062480 0.400530 -2.720284 26.484396 7.459889 14.384692 18.643916 -14.880096 -77.318755 73.046954 -55.056986 0.583354 1.152855 -0.398720 0.633780 -0.055190 -0.192920 
-1.358690 17.183560 -1.977600 -1.236335 21.338369 -7.400754 -15.042126 11.869612 3.291677 4.729681 -5.315160 -32.285645 4.628613 6.487611 45.895059 -0.454952 7.630121 1.869308 0.792360 0.375470 0.451150 18.587989 -10.380835 3.610925 -0.688136 8.666794 -16.702383 18.184940 -21.009773 56.387717 -2.113528 -10.772201 0.991436 0.368260 0.347370 0.179130 -4.618814 0.009506 -8.469858 9.654800 -0.860621 32.314306 -14.185368 5.820065 17.738091 2.193425 -3.142020 -10.463851 -8.924236 -2.472613 37.782177 11.977710 -7.925400 -24.309420 -4.194755 -22.523182 1.161350 -19.920349 -36.252363 -1.604739 93.175561 -67.547786 -72.779852 -3.319202 0.622418 0.862040 -0.014860 0.007850 0.383110 -0.818753 25.205232 10.239419 22.666991 21.677987 -7.658687 -102.603134 70.783439 -88.826412 1.600371 2.424696 -0.355020 0.541760 -0.092710 -0.223900 
-1.350870 17.130550 -1.915040 -2.092585 23.391745 -8.048434 -15.026446 11.995825 2.861576 5.127389 -4.633402 -29.333945 6.046276 5.677441 44.070085 -0.577487 7.280227 2.007071 0.701580 0.211510 0.457610 18.586151 -10.210690 3.997555 -3.667399 9.676701 -20.011944 22.858630 -26.359439 60.140396 -2.476558 -12.149807 0.608526 0.284320 0.347110 0.166040 -4.710253 -0.095599 -8.506672 10.273476 -1.532339 33.080306 -13.904689 4.739813 17.177881 2.130566 -3.162328 -11.044778 -9.096847 -1.394759 39.799357 12.288710 -6.801030 -24.563210 -7.787180 -22.185929 3.246233 -25.735383 -33.494394 0.624997 118.515400 -71.093910 -114.760425 -3.735965 2.373922 0.962720 -0.034730 -0.000120 0.322100 3.160420 24.940358 10.097794 32.944201 19.470953 -11.994448 -165.764891 78.409001 -178.610538 1.423383 -1.614070 -0.433200 0.552910 -0.029830 -0.288390 
